<mxfile host="app.diagrams.net" modified="2021-06-21T07:58:14.407Z" agent="5.0 (Windows NT 10.0; Win64; x64) AppleWebKit/537.36 (KHTML, like Gecko) Chrome/91.0.4472.106 Safari/537.36" etag="kXmQ0E5CzaF2Hr2wilaq" version="14.8.0" type="github">
  <diagram id="kZA55Ri5l6qM_A8G7Y4E" name="Page-1">
    <mxGraphModel dx="1000" dy="1084" grid="1" gridSize="10" guides="1" tooltips="1" connect="1" arrows="1" fold="1" page="1" pageScale="1" pageWidth="827" pageHeight="1169" math="0" shadow="0">
      <root>
        <mxCell id="0" />
        <mxCell id="1" parent="0" />
        <mxCell id="lDiaifbI5lFIjhtOzj-N-2" value="Assembly A" style="rounded=1;whiteSpace=wrap;html=1;fontSize=18;verticalAlign=top;" parent="1" vertex="1">
          <mxGeometry x="60" y="170" width="470" height="340" as="geometry" />
        </mxCell>
        <mxCell id="lDiaifbI5lFIjhtOzj-N-33" value="" style="rounded=1;whiteSpace=wrap;html=1;shadow=0;fontSize=18;strokeWidth=1;verticalAlign=top;" parent="1" vertex="1">
          <mxGeometry x="60" y="240" width="470" height="270" as="geometry" />
        </mxCell>
        <mxCell id="lDiaifbI5lFIjhtOzj-N-34" value="&lt;font style=&quot;font-size: 16px&quot;&gt;CAD Information&lt;/font&gt;" style="rounded=1;whiteSpace=wrap;html=1;shadow=0;fontSize=18;strokeWidth=1;verticalAlign=top;" parent="1" vertex="1">
          <mxGeometry x="80" y="250" width="290" height="140" as="geometry" />
        </mxCell>
        <mxCell id="lDiaifbI5lFIjhtOzj-N-35" value="&lt;font&gt;&lt;span style=&quot;font-size: 14px&quot;&gt;&amp;nbsp; &amp;nbsp; &amp;nbsp; Cluster 2&lt;/span&gt;&lt;br&gt;&lt;br&gt;&lt;div style=&quot;text-align: left&quot;&gt;&lt;span style=&quot;font-size: 14px&quot;&gt;annotation 1&lt;/span&gt;&lt;/div&gt;&lt;div style=&quot;text-align: left&quot;&gt;&lt;span style=&quot;font-size: 14px&quot;&gt;&lt;br&gt;&lt;/span&gt;&lt;/div&gt;&lt;div style=&quot;text-align: left&quot;&gt;&lt;br&gt;&lt;/div&gt;&lt;/font&gt;" style="shape=card;whiteSpace=wrap;html=1;shadow=0;fontSize=18;strokeWidth=1;verticalAlign=top;dashed=1;" parent="1" vertex="1">
          <mxGeometry x="230" y="290" width="130" height="90" as="geometry" />
        </mxCell>
        <mxCell id="lDiaifbI5lFIjhtOzj-N-36" value="&lt;span style=&quot;font-size: 14px&quot;&gt;&amp;nbsp; &amp;nbsp; &amp;nbsp; Cluster 1&lt;br&gt;&lt;br&gt;&lt;/span&gt;&lt;div style=&quot;text-align: left&quot;&gt;&lt;span style=&quot;font-size: 14px&quot;&gt;annotation 2&lt;/span&gt;&lt;/div&gt;&lt;div&gt;&lt;span style=&quot;font-size: 14px&quot;&gt;&lt;br&gt;&lt;/span&gt;&lt;/div&gt;" style="shape=card;whiteSpace=wrap;html=1;shadow=0;dashed=1;fontSize=18;strokeWidth=1;verticalAlign=top;" parent="1" vertex="1">
          <mxGeometry x="90" y="289" width="130" height="91" as="geometry" />
        </mxCell>
        <mxCell id="lDiaifbI5lFIjhtOzj-N-37" value="Metadata" style="rounded=1;whiteSpace=wrap;html=1;shadow=0;fontSize=16;strokeWidth=1;verticalAlign=bottom;" parent="1" vertex="1">
          <mxGeometry x="90" y="431" width="260" height="70" as="geometry" />
        </mxCell>
        <mxCell id="lDiaifbI5lFIjhtOzj-N-38" value="" style="strokeWidth=1;html=1;shape=mxgraph.flowchart.database;whiteSpace=wrap;shadow=0;fontSize=18;verticalAlign=top;" parent="1" vertex="1">
          <mxGeometry x="117" y="441" width="40" height="30" as="geometry" />
        </mxCell>
        <mxCell id="lDiaifbI5lFIjhtOzj-N-39" value="" style="strokeWidth=1;html=1;shape=mxgraph.flowchart.database;whiteSpace=wrap;shadow=0;fontSize=18;verticalAlign=top;" parent="1" vertex="1">
          <mxGeometry x="171" y="441" width="40" height="30" as="geometry" />
        </mxCell>
        <mxCell id="lDiaifbI5lFIjhtOzj-N-40" value="" style="strokeWidth=1;html=1;shape=mxgraph.flowchart.database;whiteSpace=wrap;shadow=0;fontSize=18;verticalAlign=top;" parent="1" vertex="1">
          <mxGeometry x="227" y="441" width="40" height="30" as="geometry" />
        </mxCell>
        <mxCell id="lDiaifbI5lFIjhtOzj-N-41" value="" style="strokeWidth=1;html=1;shape=mxgraph.flowchart.database;whiteSpace=wrap;shadow=0;fontSize=18;verticalAlign=top;" parent="1" vertex="1">
          <mxGeometry x="284" y="441" width="40" height="30" as="geometry" />
        </mxCell>
        <mxCell id="lDiaifbI5lFIjhtOzj-N-43" value="P1" style="rounded=1;whiteSpace=wrap;html=1;shadow=0;fontSize=13;strokeWidth=1;verticalAlign=middle;" parent="1" vertex="1">
          <mxGeometry x="389" y="275" width="50" height="42" as="geometry" />
        </mxCell>
        <mxCell id="lDiaifbI5lFIjhtOzj-N-44" value="P2" style="rounded=1;whiteSpace=wrap;html=1;shadow=0;fontSize=13;strokeWidth=1;verticalAlign=middle;" parent="1" vertex="1">
          <mxGeometry x="389" y="360" width="50" height="42" as="geometry" />
        </mxCell>
        <mxCell id="JVT1JrwiCi7vjyfO7Wov-1" value="&lt;font style=&quot;font-size: 18px&quot;&gt;Assembly&amp;nbsp;&lt;span style=&quot;color: rgb(36 , 41 , 46) ; font-family: &amp;#34;katex_math&amp;#34; ; font-style: italic ; text-align: left&quot;&gt;Î±&lt;/span&gt;&lt;/font&gt;" style="rounded=1;whiteSpace=wrap;html=1;fontSize=18;verticalAlign=top;" vertex="1" parent="1">
          <mxGeometry x="584" y="172" width="440" height="338" as="geometry" />
        </mxCell>
        <mxCell id="JVT1JrwiCi7vjyfO7Wov-4" value="" style="ellipse;whiteSpace=wrap;html=1;aspect=fixed;verticalAlign=middle;fillColor=#ffe6cc;strokeColor=#d79b00;spacing=1;strokeWidth=0;shadow=1;" vertex="1" parent="1">
          <mxGeometry x="970" y="177" width="10" height="10" as="geometry" />
        </mxCell>
        <mxCell id="JVT1JrwiCi7vjyfO7Wov-5" value="" style="ellipse;whiteSpace=wrap;html=1;aspect=fixed;verticalAlign=middle;fillColor=#f5f5f5;strokeColor=#666666;fontColor=#333333;spacing=1;strokeWidth=0;shadow=1;" vertex="1" parent="1">
          <mxGeometry x="1000" y="213.5" width="10" height="10" as="geometry" />
        </mxCell>
        <mxCell id="JVT1JrwiCi7vjyfO7Wov-6" value="" style="ellipse;whiteSpace=wrap;html=1;aspect=fixed;verticalAlign=middle;fillColor=#d5e8d4;strokeColor=#82b366;spacing=1;strokeWidth=0;shadow=1;" vertex="1" parent="1">
          <mxGeometry x="956.5" y="220" width="9.5" height="9.5" as="geometry" />
        </mxCell>
        <mxCell id="JVT1JrwiCi7vjyfO7Wov-7" value="" style="ellipse;whiteSpace=wrap;html=1;aspect=fixed;verticalAlign=middle;fillColor=#f5f5f5;strokeColor=#666666;fontColor=#333333;spacing=1;strokeWidth=0;shadow=1;" vertex="1" parent="1">
          <mxGeometry x="903.5" y="214" width="12.5" height="12.5" as="geometry" />
        </mxCell>
        <mxCell id="JVT1JrwiCi7vjyfO7Wov-8" value="" style="ellipse;whiteSpace=wrap;html=1;aspect=fixed;verticalAlign=middle;fillColor=#dae8fc;strokeColor=#6c8ebf;spacing=1;strokeWidth=0;shadow=1;" vertex="1" parent="1">
          <mxGeometry x="903.5" y="190" width="10.5" height="10.5" as="geometry" />
        </mxCell>
        <mxCell id="JVT1JrwiCi7vjyfO7Wov-10" value="" style="ellipse;whiteSpace=wrap;html=1;aspect=fixed;verticalAlign=middle;fillColor=#e1d5e7;strokeColor=#9673a6;spacing=1;strokeWidth=0;shadow=1;" vertex="1" parent="1">
          <mxGeometry x="947" y="193.5" width="9" height="9" as="geometry" />
        </mxCell>
        <mxCell id="JVT1JrwiCi7vjyfO7Wov-15" value="" style="endArrow=none;html=1;entryX=0.5;entryY=1;entryDx=0;entryDy=0;exitX=1;exitY=0.5;exitDx=0;exitDy=0;spacing=1;strokeWidth=0;shadow=1;" edge="1" target="JVT1JrwiCi7vjyfO7Wov-8" parent="1">
          <mxGeometry width="50" height="50" relative="1" as="geometry">
            <mxPoint x="884.5" y="213.25" as="sourcePoint" />
            <mxPoint x="833" y="210.5" as="targetPoint" />
          </mxGeometry>
        </mxCell>
        <mxCell id="JVT1JrwiCi7vjyfO7Wov-16" value="" style="endArrow=none;html=1;exitX=0.5;exitY=1;exitDx=0;exitDy=0;entryX=0.5;entryY=0;entryDx=0;entryDy=0;spacing=1;strokeWidth=0;shadow=1;" edge="1" source="JVT1JrwiCi7vjyfO7Wov-8" target="JVT1JrwiCi7vjyfO7Wov-7" parent="1">
          <mxGeometry width="50" height="50" relative="1" as="geometry">
            <mxPoint x="843" y="230.5" as="sourcePoint" />
            <mxPoint x="893" y="180.5" as="targetPoint" />
          </mxGeometry>
        </mxCell>
        <mxCell id="JVT1JrwiCi7vjyfO7Wov-17" value="" style="endArrow=none;html=1;exitX=1;exitY=0.5;exitDx=0;exitDy=0;entryX=0;entryY=0.5;entryDx=0;entryDy=0;spacing=1;strokeWidth=0;shadow=1;" edge="1" target="JVT1JrwiCi7vjyfO7Wov-7" parent="1">
          <mxGeometry width="50" height="50" relative="1" as="geometry">
            <mxPoint x="884.5" y="213.25" as="sourcePoint" />
            <mxPoint x="893" y="180.5" as="targetPoint" />
          </mxGeometry>
        </mxCell>
        <mxCell id="JVT1JrwiCi7vjyfO7Wov-18" value="" style="endArrow=none;html=1;exitX=1;exitY=0.5;exitDx=0;exitDy=0;entryX=0;entryY=0.5;entryDx=0;entryDy=0;spacing=1;strokeWidth=0;shadow=1;" edge="1" source="JVT1JrwiCi7vjyfO7Wov-8" target="JVT1JrwiCi7vjyfO7Wov-10" parent="1">
          <mxGeometry width="50" height="50" relative="1" as="geometry">
            <mxPoint x="843" y="230.5" as="sourcePoint" />
            <mxPoint x="893" y="180.5" as="targetPoint" />
          </mxGeometry>
        </mxCell>
        <mxCell id="JVT1JrwiCi7vjyfO7Wov-19" value="" style="endArrow=none;html=1;exitX=1;exitY=0;exitDx=0;exitDy=0;entryX=0.5;entryY=1;entryDx=0;entryDy=0;spacing=1;strokeWidth=0;shadow=1;" edge="1" source="JVT1JrwiCi7vjyfO7Wov-7" target="JVT1JrwiCi7vjyfO7Wov-10" parent="1">
          <mxGeometry width="50" height="50" relative="1" as="geometry">
            <mxPoint x="843" y="230.5" as="sourcePoint" />
            <mxPoint x="893" y="180.5" as="targetPoint" />
          </mxGeometry>
        </mxCell>
        <mxCell id="JVT1JrwiCi7vjyfO7Wov-20" value="" style="endArrow=none;html=1;entryX=0;entryY=0.5;entryDx=0;entryDy=0;exitX=0.5;exitY=1;exitDx=0;exitDy=0;spacing=1;strokeWidth=0;shadow=1;" edge="1" source="JVT1JrwiCi7vjyfO7Wov-10" target="JVT1JrwiCi7vjyfO7Wov-5" parent="1">
          <mxGeometry width="50" height="50" relative="1" as="geometry">
            <mxPoint x="843" y="230.5" as="sourcePoint" />
            <mxPoint x="893" y="180.5" as="targetPoint" />
          </mxGeometry>
        </mxCell>
        <mxCell id="JVT1JrwiCi7vjyfO7Wov-21" value="" style="endArrow=none;html=1;entryX=0;entryY=0.5;entryDx=0;entryDy=0;exitX=1;exitY=0.5;exitDx=0;exitDy=0;spacing=1;strokeWidth=0;shadow=1;" edge="1" source="JVT1JrwiCi7vjyfO7Wov-7" target="JVT1JrwiCi7vjyfO7Wov-6" parent="1">
          <mxGeometry width="50" height="50" relative="1" as="geometry">
            <mxPoint x="843" y="230.5" as="sourcePoint" />
            <mxPoint x="893" y="180.5" as="targetPoint" />
          </mxGeometry>
        </mxCell>
        <mxCell id="JVT1JrwiCi7vjyfO7Wov-22" value="" style="endArrow=none;html=1;entryX=0.5;entryY=1;entryDx=0;entryDy=0;exitX=1;exitY=0.5;exitDx=0;exitDy=0;spacing=1;strokeWidth=0;shadow=1;" edge="1" source="JVT1JrwiCi7vjyfO7Wov-6" target="JVT1JrwiCi7vjyfO7Wov-5" parent="1">
          <mxGeometry width="50" height="50" relative="1" as="geometry">
            <mxPoint x="843" y="230.5" as="sourcePoint" />
            <mxPoint x="893" y="180.5" as="targetPoint" />
          </mxGeometry>
        </mxCell>
        <mxCell id="JVT1JrwiCi7vjyfO7Wov-23" value="" style="endArrow=none;html=1;exitX=0.5;exitY=0;exitDx=0;exitDy=0;entryX=0.5;entryY=1;entryDx=0;entryDy=0;spacing=1;strokeWidth=0;shadow=1;" edge="1" source="JVT1JrwiCi7vjyfO7Wov-6" target="JVT1JrwiCi7vjyfO7Wov-10" parent="1">
          <mxGeometry width="50" height="50" relative="1" as="geometry">
            <mxPoint x="843" y="230.5" as="sourcePoint" />
            <mxPoint x="913" y="200.5" as="targetPoint" />
          </mxGeometry>
        </mxCell>
        <mxCell id="JVT1JrwiCi7vjyfO7Wov-24" value="" style="endArrow=none;html=1;entryX=0.5;entryY=1;entryDx=0;entryDy=0;exitX=1;exitY=0.5;exitDx=0;exitDy=0;spacing=1;strokeWidth=0;shadow=1;" edge="1" source="JVT1JrwiCi7vjyfO7Wov-10" target="JVT1JrwiCi7vjyfO7Wov-4" parent="1">
          <mxGeometry width="50" height="50" relative="1" as="geometry">
            <mxPoint x="843" y="230.5" as="sourcePoint" />
            <mxPoint x="893" y="180.5" as="targetPoint" />
          </mxGeometry>
        </mxCell>
        <mxCell id="JVT1JrwiCi7vjyfO7Wov-25" value="" style="rounded=1;whiteSpace=wrap;html=1;shadow=0;fontSize=18;strokeWidth=1;verticalAlign=top;" vertex="1" parent="1">
          <mxGeometry x="584" y="247" width="440" height="263" as="geometry" />
        </mxCell>
        <mxCell id="JVT1JrwiCi7vjyfO7Wov-27" value="&lt;font&gt;&lt;span style=&quot;font-size: 14px&quot;&gt;&amp;nbsp; &amp;nbsp; &amp;nbsp; Cluster 2&lt;/span&gt;&lt;br&gt;&lt;br&gt;&lt;div style=&quot;text-align: left&quot;&gt;&lt;span style=&quot;font-size: 14px&quot;&gt;annotation 1&lt;/span&gt;&lt;/div&gt;&lt;div style=&quot;text-align: left&quot;&gt;&lt;span style=&quot;font-size: 14px&quot;&gt;&lt;br&gt;&lt;/span&gt;&lt;/div&gt;&lt;div style=&quot;text-align: left&quot;&gt;&lt;br&gt;&lt;/div&gt;&lt;/font&gt;" style="shape=card;whiteSpace=wrap;html=1;shadow=0;fontSize=18;strokeWidth=1;verticalAlign=top;dashed=1;" vertex="1" parent="1">
          <mxGeometry x="609" y="284" width="130" height="138" as="geometry" />
        </mxCell>
        <mxCell id="JVT1JrwiCi7vjyfO7Wov-29" value="Metadata" style="rounded=1;whiteSpace=wrap;html=1;shadow=0;fontSize=16;strokeWidth=1;verticalAlign=bottom;" vertex="1" parent="1">
          <mxGeometry x="836" y="275" width="150" height="70" as="geometry" />
        </mxCell>
        <mxCell id="JVT1JrwiCi7vjyfO7Wov-30" value="" style="strokeWidth=1;html=1;shape=mxgraph.flowchart.database;whiteSpace=wrap;shadow=0;fontSize=18;verticalAlign=top;" vertex="1" parent="1">
          <mxGeometry x="866.75" y="289" width="40" height="30" as="geometry" />
        </mxCell>
        <mxCell id="JVT1JrwiCi7vjyfO7Wov-31" value="" style="strokeWidth=1;html=1;shape=mxgraph.flowchart.database;whiteSpace=wrap;shadow=0;fontSize=18;verticalAlign=top;" vertex="1" parent="1">
          <mxGeometry x="927" y="290" width="40" height="30" as="geometry" />
        </mxCell>
        <mxCell id="JVT1JrwiCi7vjyfO7Wov-35" value="P1" style="rounded=1;whiteSpace=wrap;html=1;shadow=0;fontSize=13;strokeWidth=1;verticalAlign=middle;" vertex="1" parent="1">
          <mxGeometry x="776" y="289" width="50" height="42" as="geometry" />
        </mxCell>
        <mxCell id="JVT1JrwiCi7vjyfO7Wov-37" value="Metadata" style="rounded=1;whiteSpace=wrap;html=1;shadow=0;fontSize=16;strokeWidth=1;verticalAlign=bottom;" vertex="1" parent="1">
          <mxGeometry x="836" y="380" width="150" height="70" as="geometry" />
        </mxCell>
        <mxCell id="JVT1JrwiCi7vjyfO7Wov-38" value="" style="strokeWidth=1;html=1;shape=mxgraph.flowchart.database;whiteSpace=wrap;shadow=0;fontSize=18;verticalAlign=top;" vertex="1" parent="1">
          <mxGeometry x="866.75" y="394" width="40" height="30" as="geometry" />
        </mxCell>
        <mxCell id="JVT1JrwiCi7vjyfO7Wov-39" value="P3" style="rounded=1;whiteSpace=wrap;html=1;shadow=0;fontSize=13;strokeWidth=1;verticalAlign=middle;" vertex="1" parent="1">
          <mxGeometry x="776" y="394" width="50" height="42" as="geometry" />
        </mxCell>
        <mxCell id="JVT1JrwiCi7vjyfO7Wov-40" value="" style="strokeWidth=1;html=1;shape=mxgraph.flowchart.database;whiteSpace=wrap;shadow=0;fontSize=18;verticalAlign=top;" vertex="1" parent="1">
          <mxGeometry x="927" y="395" width="40" height="30" as="geometry" />
        </mxCell>
        <mxCell id="JVT1JrwiCi7vjyfO7Wov-41" value="&lt;span style=&quot;font-size: 14px ; text-align: left&quot;&gt;annotation 3&lt;/span&gt;" style="rounded=1;whiteSpace=wrap;html=1;dashed=1;" vertex="1" parent="1">
          <mxGeometry x="594" y="450" width="123" height="20" as="geometry" />
        </mxCell>
        <mxCell id="JVT1JrwiCi7vjyfO7Wov-44" value="" style="curved=1;endArrow=none;html=1;endFill=0;exitX=0.5;exitY=0;exitDx=0;exitDy=0;" edge="1" parent="1" source="JVT1JrwiCi7vjyfO7Wov-41">
          <mxGeometry width="50" height="50" relative="1" as="geometry">
            <mxPoint x="655.5" y="434" as="sourcePoint" />
            <mxPoint x="694" y="394" as="targetPoint" />
            <Array as="points">
              <mxPoint x="694" y="424" />
              <mxPoint x="644" y="394" />
            </Array>
          </mxGeometry>
        </mxCell>
        <mxCell id="JVT1JrwiCi7vjyfO7Wov-47" value="" style="ellipse;whiteSpace=wrap;html=1;aspect=fixed;verticalAlign=middle;fillColor=#fff2cc;strokeColor=#d6b656;spacing=1;strokeWidth=0;shadow=1;" vertex="1" parent="1">
          <mxGeometry x="877.75" y="208.5" width="10.5" height="10.5" as="geometry" />
        </mxCell>
        <mxCell id="JVT1JrwiCi7vjyfO7Wov-48" value="&lt;font style=&quot;font-size: 18px&quot;&gt;Application&lt;/font&gt;" style="ellipse;whiteSpace=wrap;html=1;" vertex="1" parent="1">
          <mxGeometry x="460" y="300" width="120" height="70" as="geometry" />
        </mxCell>
        <mxCell id="JVT1JrwiCi7vjyfO7Wov-49" value="" style="ellipse;whiteSpace=wrap;html=1;aspect=fixed;verticalAlign=middle;fillColor=#ffe6cc;strokeColor=#d79b00;spacing=1;strokeWidth=0;shadow=1;" vertex="1" parent="1">
          <mxGeometry x="468" y="177" width="10" height="10" as="geometry" />
        </mxCell>
        <mxCell id="JVT1JrwiCi7vjyfO7Wov-50" value="" style="ellipse;whiteSpace=wrap;html=1;aspect=fixed;verticalAlign=middle;fillColor=#f5f5f5;strokeColor=#666666;fontColor=#333333;spacing=1;strokeWidth=0;shadow=1;" vertex="1" parent="1">
          <mxGeometry x="498" y="213.5" width="10" height="10" as="geometry" />
        </mxCell>
        <mxCell id="JVT1JrwiCi7vjyfO7Wov-51" value="" style="ellipse;whiteSpace=wrap;html=1;aspect=fixed;verticalAlign=middle;fillColor=#d5e8d4;strokeColor=#82b366;spacing=1;strokeWidth=0;shadow=1;" vertex="1" parent="1">
          <mxGeometry x="454.5" y="220" width="9.5" height="9.5" as="geometry" />
        </mxCell>
        <mxCell id="JVT1JrwiCi7vjyfO7Wov-52" value="" style="ellipse;whiteSpace=wrap;html=1;aspect=fixed;verticalAlign=middle;fillColor=#f5f5f5;strokeColor=#666666;fontColor=#333333;spacing=1;strokeWidth=0;shadow=1;" vertex="1" parent="1">
          <mxGeometry x="401.5" y="214" width="12.5" height="12.5" as="geometry" />
        </mxCell>
        <mxCell id="JVT1JrwiCi7vjyfO7Wov-53" value="" style="ellipse;whiteSpace=wrap;html=1;aspect=fixed;verticalAlign=middle;fillColor=#dae8fc;strokeColor=#6c8ebf;spacing=1;strokeWidth=0;shadow=1;" vertex="1" parent="1">
          <mxGeometry x="401.5" y="190" width="10.5" height="10.5" as="geometry" />
        </mxCell>
        <mxCell id="JVT1JrwiCi7vjyfO7Wov-54" value="" style="ellipse;whiteSpace=wrap;html=1;aspect=fixed;verticalAlign=middle;fillColor=#e1d5e7;strokeColor=#9673a6;spacing=1;strokeWidth=0;shadow=1;" vertex="1" parent="1">
          <mxGeometry x="445" y="193.5" width="9" height="9" as="geometry" />
        </mxCell>
        <mxCell id="JVT1JrwiCi7vjyfO7Wov-55" value="" style="endArrow=none;html=1;entryX=0.5;entryY=1;entryDx=0;entryDy=0;exitX=1;exitY=0.5;exitDx=0;exitDy=0;spacing=1;strokeWidth=0;shadow=1;" edge="1" target="JVT1JrwiCi7vjyfO7Wov-53" parent="1">
          <mxGeometry width="50" height="50" relative="1" as="geometry">
            <mxPoint x="382.5" y="213.25" as="sourcePoint" />
            <mxPoint x="331" y="210.5" as="targetPoint" />
          </mxGeometry>
        </mxCell>
        <mxCell id="JVT1JrwiCi7vjyfO7Wov-56" value="" style="endArrow=none;html=1;exitX=0.5;exitY=1;exitDx=0;exitDy=0;entryX=0.5;entryY=0;entryDx=0;entryDy=0;spacing=1;strokeWidth=0;shadow=1;" edge="1" source="JVT1JrwiCi7vjyfO7Wov-53" target="JVT1JrwiCi7vjyfO7Wov-52" parent="1">
          <mxGeometry width="50" height="50" relative="1" as="geometry">
            <mxPoint x="341" y="230.5" as="sourcePoint" />
            <mxPoint x="391" y="180.5" as="targetPoint" />
          </mxGeometry>
        </mxCell>
        <mxCell id="JVT1JrwiCi7vjyfO7Wov-57" value="" style="endArrow=none;html=1;exitX=1;exitY=0.5;exitDx=0;exitDy=0;entryX=0;entryY=0.5;entryDx=0;entryDy=0;spacing=1;strokeWidth=0;shadow=1;" edge="1" target="JVT1JrwiCi7vjyfO7Wov-52" parent="1">
          <mxGeometry width="50" height="50" relative="1" as="geometry">
            <mxPoint x="382.5" y="213.25" as="sourcePoint" />
            <mxPoint x="391" y="180.5" as="targetPoint" />
          </mxGeometry>
        </mxCell>
        <mxCell id="JVT1JrwiCi7vjyfO7Wov-58" value="" style="endArrow=none;html=1;exitX=1;exitY=0.5;exitDx=0;exitDy=0;entryX=0;entryY=0.5;entryDx=0;entryDy=0;spacing=1;strokeWidth=0;shadow=1;" edge="1" source="JVT1JrwiCi7vjyfO7Wov-53" target="JVT1JrwiCi7vjyfO7Wov-54" parent="1">
          <mxGeometry width="50" height="50" relative="1" as="geometry">
            <mxPoint x="341" y="230.5" as="sourcePoint" />
            <mxPoint x="391" y="180.5" as="targetPoint" />
          </mxGeometry>
        </mxCell>
        <mxCell id="JVT1JrwiCi7vjyfO7Wov-59" value="" style="endArrow=none;html=1;exitX=1;exitY=0;exitDx=0;exitDy=0;entryX=0.5;entryY=1;entryDx=0;entryDy=0;spacing=1;strokeWidth=0;shadow=1;" edge="1" source="JVT1JrwiCi7vjyfO7Wov-52" target="JVT1JrwiCi7vjyfO7Wov-54" parent="1">
          <mxGeometry width="50" height="50" relative="1" as="geometry">
            <mxPoint x="341" y="230.5" as="sourcePoint" />
            <mxPoint x="391" y="180.5" as="targetPoint" />
          </mxGeometry>
        </mxCell>
        <mxCell id="JVT1JrwiCi7vjyfO7Wov-60" value="" style="endArrow=none;html=1;entryX=0;entryY=0.5;entryDx=0;entryDy=0;exitX=0.5;exitY=1;exitDx=0;exitDy=0;spacing=1;strokeWidth=0;shadow=1;" edge="1" source="JVT1JrwiCi7vjyfO7Wov-54" target="JVT1JrwiCi7vjyfO7Wov-50" parent="1">
          <mxGeometry width="50" height="50" relative="1" as="geometry">
            <mxPoint x="341" y="230.5" as="sourcePoint" />
            <mxPoint x="391" y="180.5" as="targetPoint" />
          </mxGeometry>
        </mxCell>
        <mxCell id="JVT1JrwiCi7vjyfO7Wov-61" value="" style="endArrow=none;html=1;entryX=0;entryY=0.5;entryDx=0;entryDy=0;exitX=1;exitY=0.5;exitDx=0;exitDy=0;spacing=1;strokeWidth=0;shadow=1;" edge="1" source="JVT1JrwiCi7vjyfO7Wov-52" target="JVT1JrwiCi7vjyfO7Wov-51" parent="1">
          <mxGeometry width="50" height="50" relative="1" as="geometry">
            <mxPoint x="341" y="230.5" as="sourcePoint" />
            <mxPoint x="391" y="180.5" as="targetPoint" />
          </mxGeometry>
        </mxCell>
        <mxCell id="JVT1JrwiCi7vjyfO7Wov-62" value="" style="endArrow=none;html=1;entryX=0.5;entryY=1;entryDx=0;entryDy=0;exitX=1;exitY=0.5;exitDx=0;exitDy=0;spacing=1;strokeWidth=0;shadow=1;" edge="1" source="JVT1JrwiCi7vjyfO7Wov-51" target="JVT1JrwiCi7vjyfO7Wov-50" parent="1">
          <mxGeometry width="50" height="50" relative="1" as="geometry">
            <mxPoint x="341" y="230.5" as="sourcePoint" />
            <mxPoint x="391" y="180.5" as="targetPoint" />
          </mxGeometry>
        </mxCell>
        <mxCell id="JVT1JrwiCi7vjyfO7Wov-63" value="" style="endArrow=none;html=1;exitX=0.5;exitY=0;exitDx=0;exitDy=0;entryX=0.5;entryY=1;entryDx=0;entryDy=0;spacing=1;strokeWidth=0;shadow=1;" edge="1" source="JVT1JrwiCi7vjyfO7Wov-51" target="JVT1JrwiCi7vjyfO7Wov-54" parent="1">
          <mxGeometry width="50" height="50" relative="1" as="geometry">
            <mxPoint x="341" y="230.5" as="sourcePoint" />
            <mxPoint x="411" y="200.5" as="targetPoint" />
          </mxGeometry>
        </mxCell>
        <mxCell id="JVT1JrwiCi7vjyfO7Wov-64" value="" style="endArrow=none;html=1;entryX=0.5;entryY=1;entryDx=0;entryDy=0;exitX=1;exitY=0.5;exitDx=0;exitDy=0;spacing=1;strokeWidth=0;shadow=1;" edge="1" source="JVT1JrwiCi7vjyfO7Wov-54" target="JVT1JrwiCi7vjyfO7Wov-49" parent="1">
          <mxGeometry width="50" height="50" relative="1" as="geometry">
            <mxPoint x="341" y="230.5" as="sourcePoint" />
            <mxPoint x="391" y="180.5" as="targetPoint" />
          </mxGeometry>
        </mxCell>
        <mxCell id="JVT1JrwiCi7vjyfO7Wov-65" value="" style="ellipse;whiteSpace=wrap;html=1;aspect=fixed;verticalAlign=middle;fillColor=#fff2cc;strokeColor=#d6b656;spacing=1;strokeWidth=0;shadow=1;" vertex="1" parent="1">
          <mxGeometry x="375.75" y="208.5" width="10.5" height="10.5" as="geometry" />
        </mxCell>
        <mxCell id="JVT1JrwiCi7vjyfO7Wov-66" value="&lt;span style=&quot;font-size: 14px ; text-align: left&quot;&gt;annotation 3&lt;/span&gt;" style="rounded=1;whiteSpace=wrap;html=1;dashed=1;" vertex="1" parent="1">
          <mxGeometry x="90" y="397.5" width="123" height="22.5" as="geometry" />
        </mxCell>
        <mxCell id="JVT1JrwiCi7vjyfO7Wov-67" value="" style="curved=1;endArrow=none;html=1;endFill=0;exitX=1;exitY=0.5;exitDx=0;exitDy=0;" edge="1" source="JVT1JrwiCi7vjyfO7Wov-66" parent="1">
          <mxGeometry width="50" height="50" relative="1" as="geometry">
            <mxPoint x="232.5" y="409.5" as="sourcePoint" />
            <mxPoint x="271" y="369.5" as="targetPoint" />
            <Array as="points">
              <mxPoint x="271" y="399.5" />
              <mxPoint x="221" y="369.5" />
            </Array>
          </mxGeometry>
        </mxCell>
        <mxCell id="JVT1JrwiCi7vjyfO7Wov-68" value="" style="curved=1;endArrow=classic;html=1;entryX=0;entryY=0;entryDx=0;entryDy=0;exitX=1;exitY=0.5;exitDx=0;exitDy=0;" edge="1" parent="1" source="lDiaifbI5lFIjhtOzj-N-43" target="JVT1JrwiCi7vjyfO7Wov-48">
          <mxGeometry width="50" height="50" relative="1" as="geometry">
            <mxPoint x="460" y="311" as="sourcePoint" />
            <mxPoint x="500" y="260" as="targetPoint" />
            <Array as="points">
              <mxPoint x="460" y="280" />
              <mxPoint x="477" y="290" />
            </Array>
          </mxGeometry>
        </mxCell>
        <mxCell id="JVT1JrwiCi7vjyfO7Wov-69" value="" style="curved=1;endArrow=classic;html=1;entryX=0;entryY=1;entryDx=0;entryDy=0;exitX=1;exitY=0.5;exitDx=0;exitDy=0;" edge="1" parent="1" source="lDiaifbI5lFIjhtOzj-N-44" target="JVT1JrwiCi7vjyfO7Wov-48">
          <mxGeometry width="50" height="50" relative="1" as="geometry">
            <mxPoint x="440" y="390" as="sourcePoint" />
            <mxPoint x="487.138485117493" y="320.50770578142465" as="targetPoint" />
            <Array as="points">
              <mxPoint x="477" y="390" />
            </Array>
          </mxGeometry>
        </mxCell>
        <mxCell id="JVT1JrwiCi7vjyfO7Wov-70" value="" style="curved=1;endArrow=classic;html=1;entryX=0.5;entryY=0;entryDx=0;entryDy=0;exitX=0;exitY=0;exitDx=80;exitDy=0;exitPerimeter=0;startSize=8;dashed=1;" edge="1" parent="1" source="lDiaifbI5lFIjhtOzj-N-35" target="JVT1JrwiCi7vjyfO7Wov-48">
          <mxGeometry width="50" height="50" relative="1" as="geometry">
            <mxPoint x="449" y="306" as="sourcePoint" />
            <mxPoint x="487.138485117493" y="320.50770578142465" as="targetPoint" />
            <Array as="points">
              <mxPoint x="390" y="250" />
              <mxPoint x="487" y="260" />
            </Array>
          </mxGeometry>
        </mxCell>
        <mxCell id="JVT1JrwiCi7vjyfO7Wov-71" value="" style="curved=1;endArrow=classic;html=1;entryX=0.5;entryY=1;entryDx=0;entryDy=0;exitX=0.5;exitY=0;exitDx=0;exitDy=0;exitPerimeter=0;startSize=8;dashed=1;" edge="1" parent="1" source="lDiaifbI5lFIjhtOzj-N-39" target="JVT1JrwiCi7vjyfO7Wov-48">
          <mxGeometry width="50" height="50" relative="1" as="geometry">
            <mxPoint x="320" y="300" as="sourcePoint" />
            <mxPoint x="530" y="310" as="targetPoint" />
            <Array as="points">
              <mxPoint x="320" y="430" />
              <mxPoint x="450" y="450" />
            </Array>
          </mxGeometry>
        </mxCell>
        <mxCell id="JVT1JrwiCi7vjyfO7Wov-72" value="" style="curved=1;endArrow=classic;html=1;entryX=0.5;entryY=1;entryDx=0;entryDy=0;exitX=0.5;exitY=0;exitDx=0;exitDy=0;exitPerimeter=0;startSize=8;dashed=1;" edge="1" parent="1" source="lDiaifbI5lFIjhtOzj-N-38" target="JVT1JrwiCi7vjyfO7Wov-48">
          <mxGeometry width="50" height="50" relative="1" as="geometry">
            <mxPoint x="201" y="451" as="sourcePoint" />
            <mxPoint x="530" y="380" as="targetPoint" />
            <Array as="points">
              <mxPoint x="310" y="420" />
              <mxPoint x="410" y="430" />
            </Array>
          </mxGeometry>
        </mxCell>
        <mxCell id="JVT1JrwiCi7vjyfO7Wov-73" value="" style="curved=1;endArrow=classic;html=1;startSize=8;exitX=0.7;exitY=0.004;exitDx=0;exitDy=0;exitPerimeter=0;entryX=0.003;entryY=0.146;entryDx=0;entryDy=0;entryPerimeter=0;" edge="1" parent="1" source="JVT1JrwiCi7vjyfO7Wov-48" target="JVT1JrwiCi7vjyfO7Wov-1">
          <mxGeometry width="50" height="50" relative="1" as="geometry">
            <mxPoint x="550" y="190" as="sourcePoint" />
            <mxPoint x="590" y="230" as="targetPoint" />
            <Array as="points">
              <mxPoint x="540" y="240" />
            </Array>
          </mxGeometry>
        </mxCell>
      </root>
    </mxGraphModel>
  </diagram>
</mxfile>
